<?xml version="1.0" encoding="utf-8"?>
<!-- Generator: Adobe Illustrator 23.0.3, SVG Export Plug-In . SVG Version: 6.00 Build 0)  -->
<svg version="1.1" id="Layer_1" xmlns="http://www.w3.org/2000/svg" xmlns:xlink="http://www.w3.org/1999/xlink" x="0px" y="0px"
	 viewBox="0 0 130 30" style="enable-background:new 0 0 130 30;" xml:space="preserve">
<style type="text/css">
	.st0{fill:#B8CFD7;}
</style>
<g>
	<g>
		<g>
			<path class="st0" d="M0.1,13.9c-0.7,3.6,0.9,6.9,4.7,6.9c0.6,0,1.2-0.1,1.8-0.2c0.1,1.8,1,2.5,2.8,2.5l1.6-0.1l0.6-3.1
				C11.3,20,11,20,10.6,20c-0.5,0-1.2-0.1-1.2-0.7c2-1.1,3.1-3.4,3.5-5.4c0.8-3.9-0.9-7-5-7C6,7,4.3,7.5,2.7,9
				C1.3,10.4,0.5,12.2,0.1,13.9 M5.9,17.7c-2.1,0-1.5-2.4-1.3-3.9C4.9,12.4,5.3,10,7.3,10c1,0,1.4,0.6,1.4,1.5
				c0,0.8-0.1,1.9-0.3,2.7C8.2,15.6,7.7,17.7,5.9,17.7"/>
			<path class="st0" d="M18.6,20.6l0.3-1.6h0c-0.7,1.3-2.1,1.8-3.4,1.8c-0.8,0-1.6-0.2-2.1-0.8c-0.6-0.7-0.5-1.6-0.3-2.5l1.3-6.9
				h3.9l-1.2,6C17,17.3,16.9,18,17.7,18c0.4,0,0.8-0.2,1-0.6c0.2-0.3,0.3-0.7,0.4-1.1l1.1-5.7h3.9l-1.9,10H18.6z"/>
			<path class="st0" d="M29.3,9.6h-3.9L25.9,7h3.9L29.3,9.6z M27.2,20.6h-3.9l1.9-10h3.9L27.2,20.6z"/>
			<path class="st0" d="M38.6,16.8c-0.9,2.6-3,4-5.5,4c-1.4,0-2.6-0.3-3.4-1.4c-0.8-1-1-2.4-0.7-3.8c0.6-3,3.1-5.2,6.2-5.2
				c2.5,0,4.1,1.4,3.9,3.9l-3.5,0.3l0-0.1c0-0.7,0-1.5-0.9-1.5c-1.2,0-1.5,1.6-1.7,2.5c-0.2,0.9-0.5,2.5,0.8,2.5
				c0.8,0,1.3-0.8,1.5-1.5L38.6,16.8z"/>
			<polygon class="st0" points="47.3,14 49.4,20.6 45.4,20.6 44.3,16.6 43,17.8 42.5,20.6 38.6,20.6 41.2,7.2 45.1,7.2 43.7,14.4 
				44.8,13.3 47.6,10.6 51,10.6 			"/>
			<path class="st0" d="M56.4,17c-0.3,0.9-0.9,1.2-1.8,1.2c-1.2,0-1.4-0.8-1.1-1.9h6.7l0.1-0.5c0.6-3.3-1-5.4-4.3-5.4
				c-1.4,0-3,0.5-4.3,1.5c-1.1,1-1.9,2.4-2.2,3.8c-0.3,1.4,0,2.8,0.9,3.8c0.9,1,2.3,1.3,3.8,1.3c2.4,0,4.7-1.1,5.8-3.5L56.4,17z
				 M53.9,14.4c0.1-0.9,0.7-1.7,1.7-1.7c1.1,0,1.3,0.7,1.1,1.7H53.9z"/>
			<path class="st0" d="M65.9,10.6L65.6,12h0c0.7-1.1,1.9-1.6,3.2-1.6c0.9,0,2,0.3,2.4,1c0.5,0.8,0.2,2,0,3l-1.2,6.1h-3.9l1.2-6
				c0.1-0.6,0.3-1.4-0.6-1.4c-1.1,0-1.4,0.9-1.5,1.7l-1.1,5.8h-3.9l1.9-10H65.9z"/>
		</g>
		<polygon class="st0" points="83.1,20.6 73.7,20.6 76.3,7.2 80.4,7.2 78.5,17.3 83.7,17.3 		"/>
		<path class="st0" d="M90.7,10.4c-3.1,0-5.9,2.1-6.5,5.3c-0.6,3,1.5,5.1,4.5,5.1c3.1,0,5.9-2.1,6.5-5.1
			C95.9,12.5,93.9,10.4,90.7,10.4 M90.3,12.9c1.3,0,1,1.7,0.8,2.7c-0.5,2.7-1.2,2.9-1.9,2.9c-0.7,0-1.3-0.2-0.8-2.9
			C88.6,14.6,88.9,12.9,90.3,12.9"/>
		<path class="st0" d="M105.3,20.6c-0.2-0.7,0-1.5,0.1-2.2l0.7-3.5c0.3-1.4,0.7-2.7-0.5-3.6c-0.8-0.7-2.3-0.9-3.5-0.9
			c-2.3,0-4.8,0.6-5.8,3.1l3.5,0.3c0.3-0.8,1-1.1,1.7-1.1c0.9,0,1.1,0.4,0.9,1.3l0,0.1c-1.3,0.1-2.7,0.2-4.1,0.6
			c-1.5,0.4-2.9,1.5-3.2,3.1c-0.4,2,1,3,2.9,3c1.4,0,2.6-0.4,3.6-1.6c-0.1,0.5-0.1,0.9-0.1,1.4H105.3z M102.1,16.1
			c-0.2,1.1-0.5,2.3-1.9,2.3c-0.6,0-1-0.3-0.8-0.9c0.2-1.2,1.9-1.5,2.8-1.6L102.1,16.1z"/>
		<path class="st0" d="M111.9,10.7l-0.3,1.4h0c0.7-1.1,1.9-1.6,3.1-1.6c0.9,0,2,0.3,2.4,1c0.5,0.8,0.2,2,0,3l-1.2,6.2h-3.9l1.2-6.1
			c0.1-0.6,0.3-1.4-0.6-1.4c-1.1,0-1.3,0.9-1.5,1.7l-1.1,5.8h-3.9l1.9-10H111.9z"/>
		<path class="st0" d="M120.2,17.4c0,1,1.1,1.1,1.9,1.1c0.4,0,1.5,0,1.6-0.6c0.1-0.5-1.2-0.6-1.6-0.6c-2-0.3-4.5-0.7-3.9-3.4
			c0.2-1.1,1-2,2.1-2.6c1.1-0.6,2.2-0.8,3.4-0.8c1.9,0,3.7,0.7,4,2.6l-3.1,0.6c-0.2-0.7-0.9-0.9-1.6-0.9c-0.3,0-1.3,0.1-1.4,0.5
			c-0.1,0.3,0.2,0.5,0.5,0.5c0.4,0.1,1.2,0.2,1.6,0.2c0.9,0.1,1.9,0.3,2.6,0.7c0.8,0.6,1.1,1.5,0.9,2.5c-0.5,2.8-3.6,3.6-5.9,3.6
			c-2.2,0-4.2-0.7-4.4-3L120.2,17.4z"/>
	</g>
	<path class="st0" d="M129,10.7c0.2,0,0.4,0,0.4-0.2c0-0.1-0.1-0.2-0.3-0.2h-0.3v0.3H129z M129.5,11.3h-0.2l-0.3-0.5h-0.2v0.5h-0.2
		v-1.1h0.5c0.1,0,0.2,0,0.3,0.1c0.1,0,0.1,0.1,0.1,0.2c0,0.2-0.1,0.3-0.3,0.3L129.5,11.3z M128.2,10.8c0,0.4,0.3,0.8,0.8,0.8
		c0.4,0,0.8-0.3,0.8-0.8c0-0.4-0.4-0.8-0.8-0.8C128.6,10,128.2,10.3,128.2,10.8 M128.1,10.8c0-0.5,0.4-0.9,1-0.9c0.5,0,1,0.4,1,0.9
		c0,0.5-0.4,1-1,1C128.5,11.7,128.1,11.3,128.1,10.8"/>
</g>
</svg>
