<?xml version="1.0" encoding="utf-8"?>
<!-- Generator: Adobe Illustrator 23.0.3, SVG Export Plug-In . SVG Version: 6.00 Build 0)  -->
<svg version="1.1" id="Layer_1" xmlns="http://www.w3.org/2000/svg" xmlns:xlink="http://www.w3.org/1999/xlink" x="0px" y="0px"
	 viewBox="0 0 65 30" style="enable-background:new 0 0 65 30;" xml:space="preserve">
<style type="text/css">
	.st0{fill:#B8CFD7;}
</style>
<g>
	<path class="st0" d="M53.7,0H43.2l0,4.9C38.7-0.3,32.7,0,32.7,0H17.3L0,30h11.6l3.6-6.3l6.8,0V30l10.5,0c0,0,6.1,0.1,10.6-5l0,4.9
		h9.9l0-6.3h1C58.1,24,65,19.7,65,11.6C65,4.8,59.9,0,53.7,0L53.7,0z M53.1,20l-3.9,0l0,6.3l-2.4,0V20h-4.3c0,0-2.3,6.1-10.2,6.3
		l-6.4,0V20l-12.8,0l-3.7,6.4H6.4L19.3,3.9h12.8c8.1,0,10.8,7,11.2,9.5h3.4l0-9.6l6.6,0c5,0.2,7.9,4.5,8,7.3
		C61.5,15.7,58.3,19.8,53.1,20L53.1,20z"/>
	<path class="st0" d="M28.6,6.7l0,3.7h3.3c6.4,0,6.4,9.7-0.2,9.7h-3.1v3.7h3.1c5,0,8.9-3.4,8.9-8.8c0-3.4-2.8-8.2-8.3-8.2
		C32.3,6.7,28.6,6.7,28.6,6.7z M49.3,6.7v3.7h3.5c2.3,0.1,2.3,3.4,0,3.4h-3.5v3.7c0,0,3.1,0,3.3,0c3,0,5.6-2.1,5.6-5.6
		c0-3.5-2.7-5.2-5.6-5.2C53.2,6.7,49.3,6.7,49.3,6.7L49.3,6.7z M22.4,6.7l3.7,0v10.9H15l2.1-3.8l5.3,0C22.4,13.9,22.4,6.7,22.4,6.7z
		 M58.4,26.7c0.3,0.3,0.5,0.8,0.5,1.2c0,0.5-0.2,0.9-0.5,1.3c-0.3,0.3-0.8,0.5-1.2,0.5c-0.5,0-0.9-0.2-1.2-0.5
		c-0.3-0.3-0.5-0.8-0.5-1.3c0-0.5,0.2-0.9,0.5-1.2c0.3-0.3,0.8-0.5,1.2-0.5C57.6,26.2,58,26.4,58.4,26.7L58.4,26.7z M58.6,26.5
		c-0.4-0.4-0.9-0.6-1.4-0.6c-0.6,0-1,0.2-1.4,0.6c-0.4,0.4-0.6,0.9-0.6,1.4c0,0.6,0.2,1.1,0.6,1.5c0.4,0.4,0.9,0.6,1.4,0.6
		c0.6,0,1-0.2,1.4-0.6c0.4-0.4,0.6-0.9,0.6-1.5C59.2,27.4,59,26.9,58.6,26.5L58.6,26.5z M57.4,27.9c-0.1,0-0.2,0.1-0.4,0h-0.4v-0.8
		h0.3c0.4,0,0.6,0.1,0.6,0.4C57.7,27.7,57.6,27.8,57.4,27.9L57.4,27.9z M56.3,29.1h0.4v-0.9H57c0.2,0,0.3,0,0.4,0.1
		c0.1,0.1,0.2,0.3,0.2,0.5v0.2l0,0.1l0,0c0,0,0,0,0,0h0.4l0,0c0,0,0-0.1,0-0.1c0-0.1,0-0.1,0-0.2v-0.2c0-0.3-0.2-0.5-0.5-0.6
		c0.4-0.1,0.5-0.2,0.5-0.5c0-0.3-0.1-0.5-0.3-0.6c-0.2-0.1-0.4-0.1-0.6-0.1h-0.8L56.3,29.1C56.3,29.1,56.3,29.1,56.3,29.1z"/>
</g>
</svg>
