<?xml version="1.0" encoding="utf-8"?>
<!-- Generator: Adobe Illustrator 23.0.3, SVG Export Plug-In . SVG Version: 6.00 Build 0)  -->
<svg version="1.1" id="Layer_1" xmlns="http://www.w3.org/2000/svg" xmlns:xlink="http://www.w3.org/1999/xlink" x="0px" y="0px"
	 viewBox="0 0 77 30" style="enable-background:new 0 0 77 30;" xml:space="preserve">
<style type="text/css">
	.st0{fill:#B8CFD7;}
	.st1{fill-rule:evenodd;clip-rule:evenodd;fill:#B8CFD7;}
</style>
<g>
	<path class="st0" d="M10.3,6.7C5,6.7,0.5,9,0.5,16c0,5.5,3,9,10,9c8.2,0,8.8-5.5,8.8-5.5h-4c0,0-0.9,3-5,3c-3.4,0-5.8-2.3-5.8-5.6
		h15.2v-2C19.6,11.6,17.6,6.7,10.3,6.7L10.3,6.7z M10.2,9.3c3.2,0,5.4,2,5.4,5H4.5C4.5,11.1,7.4,9.3,10.2,9.3z"/>
	<path class="st0" d="M18.9,0v21.5c0,1.2-0.1,2.9-0.1,2.9h3.8c0,0,0.1-1.2,0.1-2.4c0,0,1.9,3,7,3c5.4,0,9.1-3.8,9.1-9.2
		c0-5-3.4-9.1-9-9.1c-5.3,0-7,2.9-7,2.9V0H18.9L18.9,0z M28.8,9.4c3.7,0,6,2.7,6,6.4c0,3.9-2.7,6.5-6,6.5c-3.9,0-6-3.1-6-6.5
		C22.8,12.7,24.7,9.4,28.8,9.4z"/>
	<path class="st0" d="M48.7,6.7c-8.1,0-8.6,4.5-8.6,5.2h4c0,0,0.2-2.6,4.3-2.6c2.7,0,4.7,1.2,4.7,3.6v0.8h-4.7
		c-6.3,0-9.6,1.9-9.6,5.6c0,3.7,3.1,5.7,7.2,5.7c5.6,0,7.5-3.1,7.5-3.1c0,1.3,0.1,2.5,0.1,2.5h3.6c0,0-0.1-1.5-0.1-2.5v-8.5
		C57,7.8,52.6,6.7,48.7,6.7L48.7,6.7z M53.1,16.2v1.1c0,1.5-0.9,5.1-6.2,5.1c-2.9,0-4.1-1.5-4.1-3.1C42.8,16.2,47,16.2,53.1,16.2z"
		/>
	<path class="st1" d="M56.3,8.3h4.2l6,12.2l6-12.2h3.8L65.4,30h-4l3.2-6L56.3,8.3z"/>
</g>
</svg>
