<?xml version="1.0" encoding="UTF-8"?>
<svg width="65px" height="30px" viewBox="0 0 65 30" version="1.1" xmlns="http://www.w3.org/2000/svg" xmlns:xlink="http://www.w3.org/1999/xlink">
    <!-- Generator: Sketch 53.2 (72643) - https://sketchapp.com -->
    <title>adp-1</title>
    <desc>Created with Sketch.</desc>
    <g id="breakpoints" stroke="none" stroke-width="1" fill="none" fill-rule="evenodd">
        <g id="Refresh-Hp-_Tablet-(-&gt;750px)" transform="translate(-242.000000, -991.000000)" fill="#B8CFD7" fill-rule="nonzero">
            <g id="logos" transform="translate(31.000000, 991.000000)">
                <g id="adp-1" transform="translate(211.000000, 0.000000)">
                    <path d="M53.7477482,0.0286569952 L43.1701914,0.0286569952 L43.1854796,4.94547338 C38.7098449,-0.30803173 32.743606,0.00350209047 32.743606,0.00350209047 L17.2833648,0.00350209047 L0,29.9513837 L11.6286239,29.9513837 L15.2003409,23.6220227 L21.9883232,23.6142827 L21.9883232,29.9823436 L32.5104602,29.9997585 C32.5104602,29.9997585 38.5894499,30.1197281 43.147259,25.0113474 L43.1396149,29.9533187 L53.055955,29.9533187 L53.0635991,23.6491126 L54.0898228,23.6491126 C58.1106321,23.9606464 65.0304755,19.7501023 64.999899,11.5941082 C64.9788777,4.83130882 59.8726027,0.0286569952 53.7477482,0.0286569952 Z M53.0788873,20.0326113 L49.2090495,20.0422862 L49.2014053,26.3581023 L46.7533746,26.3639073 L46.7533746,20.0268063 L42.4229782,20.0268063 C42.4229782,20.0268063 40.0781431,26.1181632 32.2295386,26.3329474 L25.852428,26.3658423 L25.852428,19.9997164 L13.0867406,19.9977814 L9.35258595,26.3542323 L6.43061947,26.3542323 L19.3339011,3.90444732 L32.1760297,3.90444732 C40.2654242,3.95088715 42.9790883,10.860746 43.3440952,13.4362212 L46.7552856,13.4362212 L46.7591077,3.83865757 L53.3426096,3.84059257 C58.3361337,4.08633664 61.2485451,8.32010061 61.3345415,11.1819548 C61.4740467,15.6943577 58.349511,19.8236321 53.0788873,20.0326113 L53.0788873,20.0326113 Z" id="Shape"></path>
                    <path d="M28.5685059,6.72036824 L28.5722923,10.4008439 L31.8380482,10.4008439 C38.2711141,10.3835827 38.2749005,20.1208285 31.6657678,20.1016494 L28.5703991,20.1016494 L28.5703991,23.7878788 L31.6884861,23.7878788 C36.6902989,23.8147296 40.6016333,20.354814 40.5940605,14.9482163 C40.5902741,11.5861143 37.7618455,6.71845033 32.269696,6.71845033 L28.5685059,6.72036824 Z M49.3462864,6.74721903 L49.3462864,10.4372842 L52.8770892,10.4372842 C55.1545989,10.5504411 55.2000356,13.8876103 52.8998075,13.8741849 L49.3652183,13.8741849 L49.3652183,17.5987725 C49.3652183,17.5987725 52.4265095,17.6179517 52.7085951,17.5987725 C55.6846927,17.589183 58.3540932,15.5024933 58.3540932,11.9601074 C58.3540932,8.45224396 55.6146446,6.74913694 52.7085951,6.74913694 C53.2140773,6.74721903 49.3462864,6.74721903 49.3462864,6.74721903 Z M22.4061665,6.67433832 L26.0675995,6.66666667 L26.0675995,17.6160338 L15,17.6160338 L17.1260544,13.8607595 L22.3967005,13.8818565 L22.4061665,6.67433832 Z M58.3768115,26.7050249 C58.7074515,27.0309786 58.8909704,27.480505 58.8841869,27.9478328 C58.8841869,28.4407365 58.7137996,28.8569237 58.3768115,29.2002301 C58.0573468,29.5392504 57.6126147,29.7276704 57.1500231,29.7199847 C56.6871631,29.7290914 56.2418894,29.5404419 55.9232348,29.2002301 C55.5925233,28.8706735 55.4103781,28.4176886 55.4196458,27.9478328 C55.4196458,27.4606828 55.5900331,27.0464135 55.9270212,26.7050249 C56.2450507,26.3662043 56.6885622,26.1777197 57.1500231,26.1852704 C57.6252143,26.1852704 58.0398233,26.3578826 58.3768115,26.7050249 L58.3768115,26.7050249 Z M58.5755966,26.5055619 C58.1837059,26.106636 57.7066216,25.9090909 57.14813,25.9090909 C56.5896384,25.9090909 56.1163404,26.106636 55.7244497,26.5055619 C55.3410937,26.8840674 55.1281935,27.4055837 55.135667,27.9478328 C55.135667,28.5193709 55.3287726,29.0007672 55.7206633,29.401611 C56.112554,29.8024549 56.5896384,30 57.14813,30 C57.7066216,30 58.1837059,29.800537 58.5755966,29.401611 C58.9712737,28.9988493 59.1662725,28.517453 59.1662725,27.9478328 C59.1771392,27.4045485 58.9629198,26.8814825 58.5755966,26.5055619 L58.5755966,26.5055619 Z M57.4491475,27.853855 C57.330142,27.8932363 57.2050084,27.9101386 57.0799751,27.9037208 L56.7278414,27.9037208 L56.7278414,27.0905255 L57.0572567,27.0905255 C57.4907977,27.0905255 57.6744373,27.1729958 57.6744373,27.5028769 C57.6744373,27.677407 57.6006028,27.7943997 57.4491475,27.853855 L57.4491475,27.853855 Z M56.3359507,29.0640583 L56.7278414,29.0640583 L56.7278414,28.1779824 L57.0345384,28.1779824 C57.2408964,28.1779824 57.3828857,28.2067511 57.4680794,28.2508631 C57.6081756,28.3352512 57.6744373,28.5097814 57.6744373,28.7686997 L57.6744373,28.9470656 L57.6857964,29.0199463 L57.6895828,29.0448792 C57.6933692,29.0506329 57.6933692,29.0583046 57.6933692,29.0659762 L58.0625416,29.0659762 L58.0473961,29.0391254 C58.0359624,29.0011579 58.0295953,28.9618112 58.0284642,28.9221327 C58.0208914,28.8626774 58.0208914,28.80514 58.0208914,28.7552743 L58.0208914,28.5884158 C58.0149227,28.298608 57.8009899,28.0566241 57.5173024,28.0187956 C57.9091931,27.9631761 58.056862,27.7790564 58.056862,27.4683544 C58.056862,27.1883391 57.9413773,27.0003836 57.7123011,26.90257 C57.5182411,26.8382285 57.3142248,26.8102812 57.1102661,26.8200997 L56.3340575,26.8200997 L56.3340575,29.0640583 L56.3359507,29.0640583 Z" id="Shape"></path>
                </g>
            </g>
        </g>
    </g>
</svg>