<?xml version="1.0" encoding="UTF-8"?>
<svg width="171px" height="30px" viewBox="0 0 171 30" version="1.1" xmlns="http://www.w3.org/2000/svg" xmlns:xlink="http://www.w3.org/1999/xlink">
    <!-- Generator: Sketch 53.2 (72643) - https://sketchapp.com -->
    <title>skyscanner_RGB_white@3x</title>
    <desc>Created with Sketch.</desc>
    <g id="breakpoints" stroke="none" stroke-width="1" fill="none" fill-rule="evenodd">
        <g id="Refresh-HP-_Desktop-(-&gt;970px)-" transform="translate(-176.000000, -779.000000)" fill="#B8CFD7">
            <g id="logos" transform="translate(176.000000, 779.000000)">
                <g id="skyscanner_RGB_white">
                    <path d="M57.044325,11.9670826 C57.0063935,12.0931543 56.9193053,12.1971082 56.8040818,12.2538518 C56.6888584,12.3105955 56.555969,12.3149731 56.4374907,12.2659279 C55.6557199,11.9395398 54.8236823,11.7609837 53.9809477,11.7387513 C52.5790631,11.7387513 51.2550611,12.175267 51.2550611,13.6292 C51.2550611,14.4149282 51.6769245,14.8212235 53.0268874,15.2577392 L54.0004183,15.5767314 C55.9669508,16.2147159 56.8106776,17.14483 56.8106776,18.9345443 C56.8106776,22.043879 54.7046057,24.1660167 50.8851193,24.1660167 C49.5691603,24.1801253 48.2603288,23.9644379 47.0137113,23.5280323 C46.7508118,23.4283341 46.6085427,23.1339131 46.689201,22.8564697 L47.1370252,21.2447196 C47.1759872,21.1181347 47.2648928,21.0145182 47.3817539,20.9594964 C47.498615,20.9044746 47.6325194,20.9031854 47.7503497,20.9559476 C48.7130477,21.3775331 49.7428979,21.610922 50.7877662,21.6442993 C52.5011807,21.6442993 53.708359,21.0331773 53.708359,19.6094647 C53.708359,18.7666537 53.1469562,18.4476614 51.881366,18.0413661 L50.813727,17.7055848 C48.9315672,17.0676003 48.0878404,15.9024393 48.0878404,14.0455688 C48.0878404,10.8791512 50.6449817,9.16666667 54.0133987,9.16666667 C55.0822536,9.18716404 56.1412856,9.38207626 57.1514134,9.74421048 C57.4166769,9.84115475 57.5601297,10.1380251 57.4759237,10.4157731 L57.044325,11.9670826 Z" id="Path"></path>
                    <path d="M63.8723014,3.34337758 C64.0000187,3.34291011 64.1211933,3.4002167 64.2023847,3.49948253 C64.2835761,3.59874835 64.3162005,3.7294788 64.2912547,3.85559634 L62.1732129,14.8733214 C64.163457,13.4040775 65.9367227,11.6580985 67.4400547,9.68752495 C67.6364135,9.43132383 67.9399271,9.28161913 68.2613362,9.28243692 L70.5655795,9.28243692 C70.6670733,9.28427354 70.7591507,9.34272858 70.8045475,9.43414488 C70.8499442,9.52556118 70.8411432,9.63480147 70.7817062,9.71765547 C69.3214727,11.8234856 67.6194765,13.7484161 65.711041,15.4524969 L68.6270891,22.8478644 C68.6703579,22.9579359 68.6562654,23.082483 68.5895154,23.1799344 C68.5227654,23.2773858 68.4121485,23.3349078 68.2945865,23.3333005 L65.847367,23.3333005 C65.5372471,23.331932 65.2604228,23.1372258 65.1524365,22.8445166 L63.1574207,17.337328 C62.5522659,17.742416 61.9770364,18.0905909 61.4949075,18.3416785 L60.6437008,22.8143861 C60.5867582,23.109928 60.3308866,23.3241503 60.0318959,23.3266048 L57.9271543,23.3266048 C57.7994369,23.3270723 57.6782623,23.2697657 57.597071,23.1704999 C57.5158796,23.0712341 57.4832551,22.9405036 57.5082009,22.8143861 L61.1657299,3.84555283 C61.2217144,3.54806494 61.4801418,3.33287239 61.7808598,3.33333407 L63.8723014,3.34337758 Z" id="Path"></path>
                    <path d="M74.5238177,9.17354575 C74.6516794,9.17306547 74.7729909,9.23194189 74.854274,9.33392694 C74.9355572,9.43591199 74.9682185,9.57022358 74.9432445,9.69979591 L73.5151961,17.2943079 C73.3750264,17.9393417 73.2980761,18.5973208 73.28551,19.2582873 C73.28551,20.149129 73.7748413,20.7476096 74.9266006,20.7476096 C76.2038323,20.7120826 77.4239568,20.1931058 78.3552483,19.2892432 L80.1860796,9.69291682 C80.2445165,9.38874512 80.5017914,9.16889213 80.8019046,9.16666667 L82.909025,9.16666667 C83.0363039,9.16721598 83.1566803,9.22653064 83.2372086,9.3283769 C83.3177368,9.43022315 83.3499835,9.56393492 83.3251231,9.69291682 L81.4343736,19.7019884 C81.2046875,20.8611145 80.9450424,22.1715806 80.7153563,23.2137623 C79.6201863,27.9156182 77.5463537,29.9999816 73.3920311,29.9999816 C72.5103231,30.0016788 71.6320722,29.8860772 70.7789355,29.6560272 C70.486987,29.5766439 70.3087107,29.2721677 70.3761526,28.9681185 L70.7356613,27.4478403 C70.798361,27.1687403 71.0679601,26.9948267 71.3381712,27.0591719 C71.9637512,27.2181957 72.6047346,27.3035807 73.2488934,27.3136981 C75.6988785,27.3136981 77.1369133,26.2440001 77.6562036,23.3272672 L77.8592594,22.2231738 C76.6974771,23.2347393 75.2339544,23.8019732 73.7149231,23.8294406 C71.294897,23.8294406 70,22.5808863 70,20.5859511 C70.0460298,19.2831822 70.2098533,17.9877146 70.4893313,16.7164646 L71.8008722,9.71011454 C71.8581252,9.40521485 72.1161142,9.18475161 72.4166973,9.18386438 L74.5238177,9.17354575 Z" id="Path"></path>
                    <path d="M92.8754368,11.9670761 C92.8375253,12.0931475 92.750483,12.1971011 92.6353202,12.2538447 C92.5201574,12.3105882 92.387338,12.3149658 92.2689221,12.2659207 C91.4875834,11.9394635 90.6559716,11.7609051 89.8136727,11.7387453 C88.4125264,11.7387453 87.0924649,12.17526 87.0924649,13.6291896 C87.0924649,14.414916 87.5108628,14.8212104 88.8601148,15.257725 L89.8331331,15.5767165 C91.79863,16.2146995 92.6386691,17.1448115 92.6386691,18.9345216 C92.6386691,22.0438491 90.5337062,24.1659819 86.7162312,24.1659819 C85.4009376,24.1804763 84.0927333,23.9647792 82.8468619,23.5279989 C82.5841009,23.4283009 82.4419066,23.1338806 82.5225225,22.8564379 L82.9733543,21.2446915 C83.0122957,21.1181069 83.1011545,21.0144906 83.2179541,20.959469 C83.3347536,20.9044473 83.4685875,20.9031581 83.5863558,20.9559202 C84.5483638,21.3781 85.5777806,21.611513 86.6221728,21.6442703 C88.3346849,21.6442703 89.5412276,21.0331498 89.5412276,19.6094404 C89.5412276,18.7666313 88.9801204,18.4476399 87.71844,18.0413454 L86.6481199,17.7055649 C84.7701947,17.067582 83.9269122,15.9024236 83.9269122,14.0455574 C83.9269122,10.8791472 86.4794634,9.16666667 89.84935,9.16666667 C90.9176368,9.18721999 91.9761027,9.3821302 92.9857122,9.74420914 C93.2496439,9.84254674 93.3924211,10.1381741 93.3100517,10.4157701 L92.8754368,11.9670761 Z" id="Path"></path>
                    <path d="M105.316713,12.316814 C105.281361,12.4382617 105.195956,12.5376149 105.083113,12.5885645 C104.970271,12.6395142 104.841374,12.6369209 104.730554,12.5814714 C103.933424,12.2124765 103.067851,12.0261531 102.193788,12.035406 C99.2076338,12.035406 97.4035668,14.6752804 97.4035668,18.0354251 C97.4328747,20.0454817 98.1362655,21.3855194 100.334362,21.3855194 C101.324804,21.394292 102.309062,21.2242083 103.242361,20.8830053 C103.34621,20.841476 103.463489,20.8574508 103.553254,20.9253526 C103.643019,20.9932544 103.692807,21.1036562 103.685237,21.2180147 L103.493107,22.8930619 C103.457752,23.2197665 103.243986,23.496936 102.942769,23.606632 C101.850615,23.9892843 100.703252,24.1784593 99.5495599,24.1660978 C95.8860663,24.1660978 94.1666667,22.0220374 94.1666667,18.4709373 C94.1666667,13.4457958 96.9281267,9.16772523 102.226353,9.16772523 C103.342642,9.14952748 104.450777,9.36612858 105.482791,9.80424317 C105.754441,9.93057831 105.893549,10.2439877 105.808435,10.5379138 L105.316713,12.316814 Z" id="Path"></path>
                    <path d="M107.785042,10.674114 C107.791192,10.3589264 107.988104,10.0809578 108.278635,9.97733836 C109.747605,9.47220797 111.28297,9.19886146 112.832113,9.16666667 C115.65965,9.16666667 117.5,10.0342864 117.5,12.5567483 C117.48418,13.1814273 117.408635,13.8030122 117.274451,14.4125835 L116.172856,20.355276 C116.002877,21.2463449 116.087866,21.7454775 116.463781,21.9397707 C116.706599,22.0334025 116.858911,22.2812289 116.836428,22.5460996 L116.669718,23.3802204 C116.614324,23.7095372 116.372489,23.9731881 116.055178,24.050197 C115.721984,24.12291 115.382493,24.1610677 115.041841,24.1640931 C113.766998,24.1640931 113.145921,23.5544143 113.060931,22.4891515 L112.975941,22.4891515 C111.927282,23.6031643 110.468268,24.2114605 108.958551,24.1640931 C106.555962,24.1640931 105,22.9179366 105,20.4256236 C105,17.0757405 107.615063,14.657125 113.430309,14.657125 L114.195214,14.657125 C114.27652,14.2658008 114.32356,13.8678171 114.335774,13.4679165 C114.335774,12.308857 113.770267,11.792975 111.988755,11.792975 C110.698835,11.8292657 109.422531,12.0734466 108.206721,12.5165497 C108.101168,12.5531821 107.984865,12.5355516 107.894181,12.4691716 C107.803498,12.4027917 107.749504,12.295765 107.749085,12.1815614 L107.785042,10.674114 Z M113.201491,16.9082464 C110.344535,16.9082464 108.249215,17.8629631 108.249215,19.9800891 C108.249215,20.9080067 108.788572,21.4875365 110.004576,21.4875365 C111.190125,21.4462029 112.314321,20.9373711 113.142652,20.0671861 L113.763729,16.9082464 L113.201491,16.9082464 Z" id="Shape" fill-rule="nonzero"></path>
                    <path d="M123.279621,8.81084189 C123.417647,8.80614694 123.550942,8.86239775 123.645288,8.96515444 C123.739634,9.06791113 123.785843,9.20716685 123.772054,9.34717397 L123.676964,10.367935 L123.704132,10.367935 C125.122958,9.11463316 126.921475,8.39630345 128.798264,8.33333333 C131.03289,8.33333333 132.5,9.64821197 132.5,11.7450974 C132.482739,12.6912885 132.374682,13.6334907 132.177372,14.5582456 L130.632152,22.8039187 C130.572533,23.1099178 130.310057,23.3310916 130.003875,23.3333304 L127.84736,23.3333304 C127.717507,23.3327778 127.594697,23.2731068 127.512541,23.1706487 C127.430384,23.0681906 127.397485,22.9336755 127.422849,22.8039187 L128.849206,15.2779687 C128.99586,14.5879523 129.084479,13.8864477 129.1141,13.1810833 C129.1141,12.073817 128.526577,11.5063431 127.290401,11.5063431 C125.931966,11.5063431 124.410519,12.2226059 123.32377,13.2710486 L121.540824,22.8039187 C121.483883,23.1101134 121.22181,23.3321476 120.915944,23.3333304 L118.769617,23.3333304 C118.63917,23.3338136 118.515405,23.2745834 118.432479,23.1719857 C118.349552,23.069388 118.316231,22.9342695 118.34171,22.8039187 L120.875191,9.34025355 C120.932132,9.0340589 121.194206,8.81202472 121.500071,8.81084189 L123.279621,8.81084189 Z" id="Path"></path>
                    <path d="M137.471438,8.81084198 C137.606556,8.81123394 137.735294,8.86955178 137.826217,8.97155535 C137.91714,9.07355893 137.961879,9.20985921 137.949508,9.34717416 L137.851182,10.3679354 L137.881697,10.3679354 C139.298073,9.11438896 141.093757,8.39602376 142.967553,8.33333333 C145.198549,8.33333333 146.666667,9.64821223 146.666667,11.745098 C146.643217,12.6918098 146.529664,13.6339549 146.32761,14.5582468 L144.801852,22.8039216 C144.743537,23.110653 144.480759,23.3324408 144.174597,23.3333333 L142.028365,23.3333333 C141.898558,23.3325658 141.775791,23.2729947 141.69327,23.1707326 C141.610749,23.0684705 141.577,22.9340841 141.601153,22.8039216 L143.028584,15.27797 C143.174357,14.5878406 143.262825,13.8863918 143.293048,13.1810842 C143.293048,12.0738178 142.706479,11.5063437 141.472312,11.5063437 C140.116083,11.5063437 138.597107,12.2226067 137.512124,13.2710496 L135.735465,22.8039216 C135.677149,23.110653 135.414372,23.3324408 135.108209,23.3333333 L132.934853,23.3333333 C132.805046,23.3325658 132.682279,23.2729947 132.599758,23.1707326 C132.517237,23.0684705 132.483488,22.9340841 132.507641,22.8039216 L135.040398,9.34025375 C135.097486,9.03278045 135.361008,8.8103648 135.667654,8.81084198 L137.471438,8.81084198 Z" id="Path"></path>
                    <path d="M150.747261,18.0197815 C150.698735,18.4449777 150.708612,18.8750819 150.776604,19.297447 C151.030908,20.7193109 152.103547,21.416829 153.906495,21.416829 C155.176427,21.4180008 156.439288,21.2224247 157.652582,20.8366817 C157.754193,20.8036839 157.865069,20.8238403 157.949527,20.8906642 C158.033985,20.957488 158.081366,21.0625458 158.076421,21.172027 L157.887324,22.7783308 C157.857076,23.0941674 157.654707,23.3647641 157.365676,23.4758489 C156.051056,23.9347052 154.672026,24.1680891 153.283777,24.1666601 C149.390975,24.1666601 147.5,22.4563993 147.5,18.5663943 C147.5,15.2129417 148.57264,12.0942308 150.887454,10.4409787 C152.044862,9.59926205 153.495696,9.16666667 155.288863,9.16666667 C158.549165,9.16666667 160,11.0781346 160,13.9252159 C159.987647,15.1366265 159.860988,16.3439427 159.621805,17.5301774 C159.556797,17.8207233 159.301893,18.0240229 159.012128,18.0164281 L150.747261,18.0197815 Z M156.65493,15.72602 C156.797541,15.1789345 156.873114,14.6156599 156.87989,14.0492937 C156.87989,12.7448006 156.315858,11.8158942 154.878065,11.8158942 C152.791471,11.8158942 151.519953,13.3819566 151.070031,15.7327269 L156.65493,15.72602 Z" id="Shape" fill-rule="nonzero"></path>
                    <path d="M165.552024,9.48023448 C165.683957,9.48083177 165.80976,9.53615955 165.899559,9.63308007 C165.989358,9.73000059 166.035144,9.8598681 166.026043,9.99184513 L165.960207,11.1074864 L166.016168,11.1074864 C167.011533,9.89173672 168.493157,9.18095312 170.061795,9.16666667 C170.223093,9.16666667 170.358057,9.16666667 170.476562,9.16666667 C170.601964,9.18530202 170.712158,9.2599866 170.776154,9.36971553 C170.84015,9.47944446 170.851033,9.61236323 170.805742,9.73108874 L170.239552,11.5893906 C170.137434,11.8820576 169.864046,12.0797458 169.554857,12.0844977 C168.218284,12.1114148 166.914655,12.5052744 165.785742,13.223244 L163.945623,22.8283213 C163.889006,23.1209144 163.633883,23.3324791 163.33664,23.3333305 L161.25622,23.3333305 C161.129778,23.3337914 161.009815,23.2772914 160.929434,23.1794228 C160.849054,23.0815541 160.816756,22.9526637 160.841452,22.8283213 L163.297138,9.9852437 C163.353512,9.69386163 163.606827,9.4826545 163.90283,9.48023448 L165.552024,9.48023448 Z" id="Path"></path>
                    <path d="M23.0360797,12.2234319 C26.7789628,8.40081107 31.863699,6.26002213 37.1612464,6.27641722 L37.201195,6.27641722 C37.6647967,7.38884969 37.9329834,8.57572443 37.9935094,9.78284766 C37.7227465,9.76927 37.4508739,9.76248117 37.1778917,9.76248117 L37.134614,9.76248117 C28.012319,9.76435514 20.617697,17.304164 20.6158591,26.6055672 C20.6158591,26.6259337 20.6158591,26.6463002 20.6158591,26.6666667 L17.200252,26.6666667 C17.1751221,21.2506631 19.2766163,16.0496229 23.0360797,12.2234319 Z M43.2966888,18.8934569 C43.3199922,18.6185093 43.3333084,18.3435617 43.3333084,18.0618253 C43.3364072,16.7686637 43.0506521,15.4917625 42.4977164,14.327969 C38.416914,12.4764922 33.6936386,12.8619538 29.9536046,15.3516809 C26.2135706,17.841408 23.967393,22.095486 23.9880454,26.6496946 L27.4204409,26.6496946 C27.3760857,21.2091043 31.6590848,16.758497 36.9947938,16.7006649 L37.327699,16.7006649 C39.5022139,16.7285009 41.6044421,17.5007839 43.2966888,18.8934569 L43.2966888,18.8934569 Z M41.8352351,21.8635698 C40.6381718,20.6405923 39.021999,19.9395633 37.327699,19.9083869 L36.9947938,19.9083869 C33.4011982,19.9845019 30.5387548,22.998567 30.5797111,26.6632723 L33.8754723,26.6632723 C34.0918607,25.539721 34.2916038,24.9660649 34.9174655,24.3313093 C36.1755303,23.1019626 38.1602787,23.1019626 39.4183435,24.3313093 C39.6257162,24.5454663 39.801745,24.7889715 39.9410046,25.0543197 C40.9017261,24.3321632 41.6968874,23.4055648 42.2713409,22.3387879 C42.1281917,22.1826448 41.9883715,22.0197129 41.8352351,21.8635698 L41.8352351,21.8635698 Z M13.9677427,26.6157504 C13.9687801,14.3785065 23.1328821,4.16694169 35.0872472,3.08227293 C32.3468021,0.249981173 28.2569801,-0.730466401 24.5658881,0.56000157 C20.874796,1.85046954 18.2355262,5.18352104 17.7761779,9.13451444 C16.865432,8.54011867 15.8080842,8.22115882 14.7267665,8.21462805 C11.5541802,8.21462805 8.6678923,11.4664774 9.03075894,14.8031871 C6.85730582,13.6426576 4.21597429,13.9057233 2.30385245,15.4731591 C0.3917306,17.0405949 -0.427650137,19.6144009 0.217064953,22.0280926 C0.861780043,24.4417843 2.84801812,26.236472 5.27558854,26.5987784 C5.51294856,26.6418362 5.75357657,26.6634181 5.99466372,26.6632723 L13.9644137,26.6632723 C13.9644137,26.6429058 13.9644137,26.6259337 13.9644137,26.6055672 L13.9677427,26.6157504 Z M9.03075894,14.7251155 C9.03075894,14.745482 9.03075894,14.7726374 9.03075894,14.7930038 C9.03075894,14.8133703 9.03075894,14.7386932 9.03075894,14.7251155 Z" id="Shape" fill-rule="nonzero"></path>
                </g>
            </g>
        </g>
    </g>
</svg>