<?xml version="1.0" encoding="utf-8"?>
<!-- Generator: Adobe Illustrator 23.0.3, SVG Export Plug-In . SVG Version: 6.00 Build 0)  -->
<svg version="1.1" id="Layer_1" xmlns="http://www.w3.org/2000/svg" xmlns:xlink="http://www.w3.org/1999/xlink" x="0px" y="0px"
	 viewBox="0 0 539.9 120" style="enable-background:new 0 0 539.9 120;" xml:space="preserve">
<style type="text/css">
	.st0{fill:#2D2A26;}
	.st1{fill:#D7282F;}
</style>
<g>
	<rect x="215.6" y="11" class="st0" width="23.3" height="22"/>
	<rect x="215.6" y="38.7" class="st0" width="23.3" height="78"/>
	<polygon class="st0" points="55.9,38.6 40,90.2 23.5,38.7 0,38.8 27.7,116.7 52.8,116.7 79,38.6 	"/>
	<polygon class="st0" points="310.3,57.7 310.3,56.4 310.3,38.7 245.6,38.7 245.6,57.7 282.9,57.7 245.6,98 245.6,116.7 
		312.9,116.7 312.9,98 274.8,98 	"/>
	<path class="st0" d="M182.9,50.8V38.7h-22.8v78h22.8v-35c0.7-20.1,17.6-21.9,17.6-21.9h7.8V38.7c0,0-7.1,0-8.4,0
		C192.6,38.7,185.8,46.9,182.9,50.8z"/>
	<path class="st0" d="M114.7,36c-21.8,0-39.4,18.8-39.4,42c0,23.2,17.6,42,39.4,42c16.5,0,32.7-10.7,38.5-26l-21.9-0.1
		c-3.4,5.4-8.9,8.9-17.2,8.5c-8.2-0.4-15.1-7.8-17.1-18.2h31.3h6.6h18.7c0.3-2,0.4-4.1,0.4-6.2C154.1,54.8,136.5,36,114.7,36z
		 M97.8,68.7c2.6-8.9,8.9-15.1,16.3-15.1c7.4,0,13.7,6.2,16.3,15.1H97.8z"/>
	<path class="st0" d="M354.5,36c-23.3,0-42.2,18.8-42.2,42c0,23.2,18.9,42,42.2,42c23.3,0,42.2-18.8,42.2-42
		C396.7,54.8,377.8,36,354.5,36z M354.8,102.2c-9.8,0-17.7-10.8-17.7-24.1c0-13.3,7.9-24.1,17.7-24.1c9.8,0,17.7,10.8,17.7,24.1
		C372.4,91.4,364.5,102.2,354.8,102.2z"/>
	<path class="st0" d="M475.6,65.5c-0.1-24.8-19.2-31.3-33.4-28c-8.4,1.9-14.5,8-17.4,11.4V38.7h-22.6v78h22.6V69.4
		c4.9-14.3,15.3-15.1,21.6-11.2c5.6,3.4,6.5,11.2,6.5,11.2v47.3h22.7L475.6,65.5L475.6,65.5z"/>
</g>
<polyline class="st1" points="475.6,38.7 493.9,78 503.9,78 539.9,0 527.8,0 498.6,62.7 488.1,38.7 475.6,38.7 "/>
</svg>
